<svg width="100" height="48" viewBox="0 0 100 48" fill="none" xmlns="http://www.w3.org/2000/svg">
<rect width="100" height="48" rx="24" fill="#524A44"/>
<path d="M22.7727 30H19.3636L23.2045 18.3636H27.5227L31.3636 30H27.9545L25.4091 21.5682H25.3182L22.7727 30ZM22.1364 25.4091H28.5455V27.7727H22.1364V25.4091ZM42.3609 22.7273H39.1564C39.1336 22.4621 39.073 22.2216 38.9745 22.0057C38.8798 21.7898 38.7473 21.6042 38.5768 21.4489C38.4101 21.2898 38.2075 21.1686 37.9689 21.0852C37.7302 20.9981 37.4594 20.9545 37.1564 20.9545C36.6261 20.9545 36.1772 21.0833 35.8098 21.3409C35.4461 21.5985 35.1696 21.9678 34.9802 22.4489C34.7946 22.9299 34.7018 23.5076 34.7018 24.1818C34.7018 24.8939 34.7965 25.4905 34.9859 25.9716C35.1791 26.4489 35.4575 26.8087 35.8211 27.0511C36.1848 27.2898 36.6223 27.4091 37.1336 27.4091C37.4253 27.4091 37.6867 27.3731 37.9177 27.3011C38.1488 27.2254 38.3495 27.1174 38.52 26.9773C38.6904 26.8371 38.8287 26.6686 38.9348 26.4716C39.0446 26.2708 39.1185 26.0455 39.1564 25.7955L42.3609 25.8182C42.323 26.3106 42.1848 26.8125 41.9461 27.3239C41.7075 27.8314 41.3685 28.3011 40.9291 28.733C40.4935 29.161 39.9537 29.5057 39.3098 29.767C38.6658 30.0284 37.9177 30.1591 37.0654 30.1591C35.9973 30.1591 35.0389 29.9299 34.1904 29.4716C33.3457 29.0133 32.6772 28.339 32.1848 27.4489C31.6961 26.5587 31.4518 25.4697 31.4518 24.1818C31.4518 22.8864 31.7018 21.7955 32.2018 20.9091C32.7018 20.0189 33.3761 19.3466 34.2245 18.892C35.073 18.4337 36.02 18.2045 37.0654 18.2045C37.8003 18.2045 38.4764 18.3049 39.0939 18.5057C39.7113 18.7064 40.2529 19 40.7189 19.3864C41.1848 19.7689 41.5598 20.2405 41.8439 20.8011C42.1279 21.3617 42.3003 22.0038 42.3609 22.7273ZM43.0357 20.9091V18.3636H53.1494V20.9091H49.6494V30H46.5357V20.9091H43.0357ZM57.0571 18.3636V30H53.898V18.3636H57.0571ZM69.3868 24.1818C69.3868 25.4773 69.1349 26.5701 68.6311 27.4602C68.1273 28.3466 67.4474 29.0189 66.5913 29.4773C65.7353 29.9318 64.7807 30.1591 63.7277 30.1591C62.6671 30.1591 61.7087 29.9299 60.8527 29.4716C60.0004 29.0095 59.3224 28.3352 58.8186 27.4489C58.3186 26.5587 58.0686 25.4697 58.0686 24.1818C58.0686 22.8864 58.3186 21.7955 58.8186 20.9091C59.3224 20.0189 60.0004 19.3466 60.8527 18.892C61.7087 18.4337 62.6671 18.2045 63.7277 18.2045C64.7807 18.2045 65.7353 18.4337 66.5913 18.892C67.4474 19.3466 68.1273 20.0189 68.6311 20.9091C69.1349 21.7955 69.3868 22.8864 69.3868 24.1818ZM66.1368 24.1818C66.1368 23.4848 66.044 22.8977 65.8584 22.4205C65.6766 21.9394 65.4057 21.5758 65.0459 21.3295C64.6898 21.0795 64.2504 20.9545 63.7277 20.9545C63.205 20.9545 62.7637 21.0795 62.4038 21.3295C62.0478 21.5758 61.7769 21.9394 61.5913 22.4205C61.4095 22.8977 61.3186 23.4848 61.3186 24.1818C61.3186 24.8788 61.4095 25.4678 61.5913 25.9489C61.7769 26.4261 62.0478 26.7898 62.4038 27.0398C62.7637 27.286 63.205 27.4091 63.7277 27.4091C64.2504 27.4091 64.6898 27.286 65.0459 27.0398C65.4057 26.7898 65.6766 26.4261 65.8584 25.9489C66.044 25.4678 66.1368 24.8788 66.1368 24.1818ZM80.4764 18.3636V30H77.84L73.6355 23.8864H73.5673V30H70.4082V18.3636H73.09L77.2264 24.4545H77.3173V18.3636H80.4764Z" fill="white"/>
</svg>
