<svg width="83" height="18" viewBox="0 0 83 18" fill="none" xmlns="http://www.w3.org/2000/svg">
<path d="M0.125 18V0.545454H7.69318C9.02273 0.545454 10.1392 0.724432 11.0426 1.08239C11.9517 1.44034 12.6364 1.94602 13.0966 2.59943C13.5625 3.25284 13.7955 4.02273 13.7955 4.90909C13.7955 5.55114 13.6534 6.13636 13.3693 6.66477C13.0909 7.19318 12.6989 7.63636 12.1932 7.99432C11.6875 8.34659 11.0966 8.59091 10.4205 8.72727V8.89773C11.1705 8.92614 11.8523 9.11648 12.4659 9.46875C13.0795 9.81534 13.5682 10.2955 13.9318 10.9091C14.2955 11.517 14.4773 12.233 14.4773 13.0568C14.4773 14.0114 14.2273 14.8608 13.7273 15.6051C13.233 16.3494 12.5284 16.9347 11.6136 17.3608C10.6989 17.7869 9.60795 18 8.34091 18H0.125ZM4.86364 14.2159H7.07955C7.875 14.2159 8.47159 14.0682 8.86932 13.7727C9.26705 13.4716 9.46591 13.0284 9.46591 12.4432C9.46591 12.0341 9.37216 11.6875 9.18466 11.4034C8.99716 11.1193 8.73011 10.9034 8.38352 10.7557C8.04261 10.608 7.63068 10.5341 7.14773 10.5341H4.86364V14.2159ZM4.86364 7.60227H6.80682C7.22159 7.60227 7.58807 7.53693 7.90625 7.40625C8.22443 7.27557 8.47159 7.08807 8.64773 6.84375C8.82955 6.59375 8.92045 6.28977 8.92045 5.93182C8.92045 5.39204 8.72727 4.98011 8.34091 4.69602C7.95455 4.40625 7.46591 4.26136 6.875 4.26136H4.86364V7.60227ZM15.716 18V0.545454H23.2501C24.5456 0.545454 25.6791 0.78125 26.6507 1.25284C27.6223 1.72443 28.3779 2.40341 28.9177 3.28977C29.4575 4.17614 29.7274 5.23864 29.7274 6.47727C29.7274 7.72727 29.449 8.78125 28.8921 9.6392C28.341 10.4972 27.5654 11.1449 26.5654 11.5824C25.5711 12.0199 24.4092 12.2386 23.0796 12.2386H18.5796V8.55682H22.1251C22.6819 8.55682 23.1564 8.48864 23.5484 8.35227C23.9461 8.21023 24.2501 7.9858 24.4603 7.67898C24.6762 7.37216 24.7842 6.97159 24.7842 6.47727C24.7842 5.97727 24.6762 5.57102 24.4603 5.25852C24.2501 4.94034 23.9461 4.70739 23.5484 4.55966C23.1564 4.40625 22.6819 4.32954 22.1251 4.32954H20.4546V18H15.716ZM25.9433 9.98864L30.3069 18H25.1592L20.8978 9.98864H25.9433ZM35.8411 18H30.7275L36.4888 0.545454H42.9661L48.7275 18H43.6138L39.7957 5.35227H39.6593L35.8411 18ZM34.8866 11.1136H44.5002V14.6591H34.8866V11.1136ZM65.0706 0.545454V18H61.1161L54.8093 8.82955H54.707V18H49.9683V0.545454H53.9911L60.1956 9.68182H60.332V0.545454H65.0706ZM73.5878 18H66.8719V0.545454H73.5196C75.315 0.545454 76.8662 0.894886 78.173 1.59375C79.4855 2.28693 80.4969 3.28693 81.2071 4.59375C81.923 5.89489 82.281 7.45455 82.281 9.27273C82.281 11.0909 81.9258 12.6534 81.2156 13.9602C80.5054 15.2614 79.4997 16.2614 78.1986 16.9602C76.8974 17.6534 75.3605 18 73.5878 18ZM71.6105 13.9773H73.4173C74.281 13.9773 75.0168 13.8381 75.6247 13.5597C76.2383 13.2812 76.7043 12.8011 77.0224 12.1193C77.3463 11.4375 77.5082 10.4886 77.5082 9.27273C77.5082 8.05682 77.3435 7.10795 77.0139 6.42614C76.69 5.74432 76.2128 5.2642 75.5821 4.98579C74.9571 4.70739 74.19 4.56818 73.281 4.56818H71.6105V13.9773Z" fill="black"/>
</svg>
